<svg xmlns="http://www.w3.org/2000/svg" style="display: none;"><symbol id="sound-muted" viewBox="0 0 54 54"><title>sound-muted</title><path d="M46.414,26l7.293-7.293c0.391-0.391,0.391-1.023,0-1.414s-1.023-0.391-1.414,0L45,24.586l-7.293-7.293 c-0.391-0.391-1.023-0.391-1.414,0s-0.391,1.023,0,1.414L43.586,26l-7.293,7.293c-0.391,0.391-0.391,1.023,0,1.414 C36.488,34.902,36.744,35,37,35s0.512-0.098,0.707-0.293L45,27.414l7.293,7.293C52.488,34.902,52.744,35,53,35 s0.512-0.098,0.707-0.293c0.391-0.391,0.391-1.023,0-1.414L46.414,26z"/><path d="M28.404,4.4c-0.975-0.552-2.131-0.534-3.09,0.044c-0.046,0.027-0.09,0.059-0.13,0.093L11.634,16H1c-0.553,0-1,0.447-1,1v19 c0,0.266,0.105,0.52,0.293,0.707S0.734,37,1,37l10.61-0.005l13.543,12.44c0.05,0.046,0.104,0.086,0.161,0.12 c0.492,0.297,1.037,0.446,1.582,0.446c0.517-0.001,1.033-0.134,1.508-0.402C29.403,49.035,30,48.005,30,46.844V7.156 C30,5.995,29.403,4.965,28.404,4.4z M28,46.844c0,0.431-0.217,0.81-0.579,1.015c-0.155,0.087-0.548,0.255-1,0.026L13,35.556V31 c0-0.553-0.447-1-1-1s-1,0.447-1,1v3.996L2,35V18h9v4c0,0.553,0.447,1,1,1s1-0.447,1-1v-4.536l13.405-11.34 c0.46-0.242,0.86-0.07,1.016,0.018C27.783,6.347,28,6.725,28,7.156V46.844z"/></symbol><symbol id="shrimp-pair" viewBox="0 0 64 64"><title>shrimp-pair</title><path d="m19.414 14.414 2.578 2.578c2.25 2.25 2.356 5.865.242 8.243-2.298 2.585-6.297 2.702-8.742.257-1.595-1.595-2.492-3.76-2.492-6.017v-10.061c0-.781.633-1.414 1.414-1.414.375 0 .735.149 1 .414l3.172 3.172" fill="#d76e31"/><path d="m18.833 13.833-2.247-2.247-3.172-3.172c-.265-.265-.625-.414-1-.414-.781 0-1.414.633-1.414 1.414v10.061c0 2.257.897 4.422 2.493 6.018.052.052.108.096.162.145 3.184-2.66 5.213-6.658 5.213-11.131-.001-.228-.024-.449-.035-.674z" fill="#ee8041"/><path d="m23.892 34.216-1.962 1.962c-1.811 1.811-2.828 4.267-2.828 6.828l2 2c2.572 0 5.049-.969 6.939-2.713l4.707-4.345c2.921-2.697 3.013-7.282.202-10.093l-2.848-2.848c2.209 2.209 2.209 5.791 0 8-1.679 1.679-4.15 2.082-6.21 1.209z" fill="#ee8041"/><path d="m18.101 29.007 4 4c2.209 2.209 5.791 2.209 8 0 2.209-2.209 2.209-5.791 0-8l-4-4c2.209 2.209 2.209 5.791 0 8-2.209 2.209-5.79 2.209-8 0z" fill="#d76e31"/><path d="m16 27 2.101 2.007c2.209 2.209 5.791 2.209 8 0 2.209-2.209 2.209-5.791 0-8l-4.109-4.015c2.25 2.25 2.356 5.865.242 8.243-1.614 1.816-4.069 2.414-6.234 1.761z" fill="#ee8041"/><path d="m13.414 8.414-6.414-6.414c0 3.201 1.272 6.272 3.536 8.536l.464.464v-1.586c0-.781.633-1.414 1.414-1.414.375 0 .735.149 1 .414z" fill="#f19846"/><path d="m19.101 43.007c-2.631 0-5.225.612-7.578 1.789l-.422.211 6 2 2 6 .211-.422c1.176-2.353 1.789-4.947 1.789-7.578" fill="#d76e31"/><circle cx="18" cy="13" fill="#f19846" r="2"/><path d="m16 13c0 1.105.895 2 2 2 .306 0 .593-.074.852-.197.002-.099.015-.196.015-.296 0-1.193-.16-2.347-.432-3.456-.14-.032-.285-.051-.435-.051-1.105 0-2 .895-2 2z" fill="#f5ba5b"/><path d="m22.235 25.236c-1.614 1.816-4.069 2.414-6.234 1.761l-.001.003 2.101 2.007c1.719 1.719 4.262 2.082 6.35 1.126.731-1.334 1.147-2.864 1.147-4.493 0-2.193-.759-4.205-2.022-5.801.444 1.852.011 3.876-1.341 5.397z" fill="#f19846"/><path d="m31.469 39.129c.078-.486.129-.98.129-1.488 0-1.765-.497-3.41-1.346-4.819-.055.059-.094.128-.151.185-1.679 1.679-4.15 2.082-6.209 1.209l-1.962 1.963c-1.811 1.811-2.828 4.267-2.828 6.828l2 2c2.572 0 5.049-.969 6.939-2.713z" fill="#f19846"/><path d="m46.414 23.414 2.578 2.578c2.25 2.25 2.356 5.865.242 8.243-2.298 2.585-6.297 2.702-8.742.257-1.595-1.595-2.492-3.76-2.492-6.017v-10.061c0-.781.633-1.414 1.414-1.414.375 0 .735.149 1 .414l3.172 3.172" fill="#d76e31"/><path d="m45.833 22.833-2.247-2.247-3.172-3.172c-.265-.265-.625-.414-1-.414-.781 0-1.414.633-1.414 1.414v10.061c0 2.257.897 4.422 2.493 6.018.052.052.108.096.162.145 3.184-2.66 5.213-6.658 5.213-11.131-.001-.228-.024-.449-.035-.674z" fill="#ee8041"/><path d="m50.892 43.216-1.962 1.962c-1.811 1.811-2.828 4.267-2.828 6.828l2 2c2.572 0 5.049-.969 6.939-2.713l4.707-4.345c2.921-2.697 3.013-7.282.202-10.093l-2.848-2.848c2.209 2.209 2.209 5.791 0 8-1.679 1.679-4.15 2.082-6.21 1.209z" fill="#ee8041"/><path d="m45.101 38.007 4 4c2.209 2.209 5.791 2.209 8 0 2.209-2.209 2.209-5.791 0-8l-4-4c2.209 2.209 2.209 5.791 0 8-2.209 2.209-5.79 2.209-8 0z" fill="#d76e31"/><path d="m43 36 2.101 2.007c2.209 2.209 5.791 2.209 8 0 2.209-2.209 2.209-5.791 0-8l-4.109-4.015c2.25 2.25 2.356 5.865.242 8.243-1.614 1.816-4.069 2.414-6.234 1.761z" fill="#ee8041"/><path d="m40.414 17.414-6.414-6.414c0 3.201 1.272 6.272 3.536 8.536l.464.464v-1.586c0-.781.633-1.414 1.414-1.414.375 0 .735.149 1 .414z" fill="#f19846"/><path d="m46.101 52.007c-2.631 0-5.225.612-7.578 1.789l-.422.211 6 2 2 6 .211-.422c1.176-2.353 1.789-4.947 1.789-7.578" fill="#d76e31"/><circle cx="45" cy="22" fill="#f19846" r="2"/><path d="m43 22c0 1.105.895 2 2 2 .306 0 .593-.074.852-.197.002-.099.015-.196.015-.296 0-1.193-.16-2.347-.432-3.456-.14-.032-.285-.051-.435-.051-1.105 0-2 .895-2 2z" fill="#f5ba5b"/><path d="m49.235 34.236c-1.614 1.816-4.069 2.414-6.234 1.761l-.001.003 2.101 2.007c1.719 1.719 4.262 2.082 6.35 1.126.731-1.334 1.147-2.864 1.147-4.493 0-2.193-.759-4.205-2.022-5.801.444 1.852.011 3.876-1.341 5.397z" fill="#f19846"/><path d="m58.469 48.129c.078-.486.129-.98.129-1.488 0-1.765-.497-3.41-1.346-4.819-.055.059-.094.128-.151.185-1.679 1.679-4.15 2.082-6.209 1.209l-1.962 1.963c-1.811 1.811-2.828 4.267-2.828 6.828l2 2c2.572 0 5.049-.969 6.939-2.713z" fill="#f19846"/><g><path d="m60.655 36.14-2.838-2.837c-.003-.003-.006-.007-.009-.01l-4-4-.001.001c-.003-.003-.005-.006-.008-.009l-4.093-4c-.002-.002-.004-.005-.006-.007l-2.001-2.001c.187-.391.3-.823.3-1.285 0-1.654-1.346-3-2.999-3-.462 0-.894.114-1.286.301l-2.085-2.085-6.922-6.923c-.286-.285-.716-.37-1.09-.217-.374.155-.617.519-.617.924-.002 2.933.969 5.712 2.741 7.992-2.523-1.309-4.696-3.198-6.372-5.563l-1.632 1.157c2.329 3.284 5.525 5.731 9.263 7.137v.229c-3.132-.236-6.046-1.567-8.29-3.826l-1.419 1.409c2.622 2.641 6.04 4.178 9.709 4.418v4.524c0 2.541.989 4.928 2.785 6.724.77.77 1.684 1.329 2.677 1.67l1.932 1.846 4.001 4c.271.27.562.506.864.72l-1.036 1.036c-1.782 1.783-2.852 4.086-3.075 6.565-2.45.132-4.877.768-7.072 1.866l-.423.212c-.361.182-.578.562-.55.966.029.403.298.749.682.877l5.525 1.842 1.842 5.524c.128.384.474.652.877.682.024.002.048.003.072.003.376-.001.723-.212.894-.552l.212-.424c1.097-2.194 1.733-4.62 1.866-7.07 2.475-.213 4.806-1.233 6.646-2.933l4.707-4.345c1.615-1.491 2.528-3.522 2.572-5.72.043-2.198-.788-4.264-2.343-5.818zm-2.897 1.859c0 1.244-.484 2.413-1.365 3.293-1.814 1.816-4.771 1.816-6.585 0l-.643-.643c1.683-.016 3.361-.662 4.642-1.943 1.241-1.241 1.93-2.886 1.948-4.638l.639.639c.879.879 1.364 2.049 1.364 3.292zm-5.36-7.286c.877.879 1.36 2.046 1.36 3.286 0 1.244-.484 2.413-1.365 3.293-1.813 1.818-4.769 1.816-6.602-.016l-.101-.096c1.658-.222 3.162-1.018 4.291-2.289 1.22-1.373 1.803-3.103 1.764-4.818l.648.633zm-7.398-9.721c.551 0 .999.448.999 1 0 .551-.448 1-.999 1-.552 0-1-.448-1-1s.448-1 1-1zm-6.972-4.557c-.391.276-.693.664-.865 1.118-.848-1.147-1.469-2.431-1.819-3.802zm.971 12.032v-10.061c0-.339.469-.53.706-.293l.508.509 2.086 2.086c-.187.391-.3.823-.3 1.284 0 1.654 1.346 3 3 3 .461 0 .893-.113 1.284-.3l2 2c1.874 1.874 1.962 4.892.202 6.871-.926 1.042-2.204 1.639-3.598 1.68-1.381.068-2.704-.479-3.69-1.466-1.417-1.418-2.198-3.303-2.198-5.31zm7.225 30.741-1.175-3.524c-.1-.299-.334-.533-.633-.633l-3.525-1.175c1.547-.533 3.178-.818 4.812-.859l1.38 1.38c-.042 1.635-.326 3.264-.859 4.811zm12.844-13.002-4.707 4.345c-1.61 1.487-3.676 2.345-5.855 2.439l-1.396-1.396c.099-2.16.987-4.177 2.527-5.716l1.516-1.516c.633.193 1.29.291 1.946.291 1.705 0 3.41-.648 4.707-1.946 1.224-1.224 1.908-2.84 1.944-4.564.833 1.076 1.275 2.389 1.247 3.775-.032 1.646-.718 3.17-1.929 4.288z"/><path d="m30.808 24.292-4-4-.001.001c-.003-.003-.005-.006-.008-.009l-4.093-4c-.002-.002-.004-.005-.006-.007l-2.001-2.001c.187-.391.3-.823.3-1.285 0-1.654-1.346-3-2.999-3-.462 0-.894.114-1.286.301l-2.085-2.085-6.922-6.922c-.285-.285-.717-.371-1.09-.217-.374.155-.617.519-.617.924-.002 2.932.969 5.711 2.741 7.992-2.524-1.31-4.696-3.198-6.373-5.563l-1.632 1.157c2.329 3.284 5.525 5.731 9.263 7.137v.229c-3.132-.236-6.046-1.567-8.29-3.826l-1.419 1.407c2.622 2.641 6.04 4.178 9.709 4.418v4.524c0 2.54.989 4.928 2.785 6.725.77.77 1.684 1.33 2.679 1.67l1.93 1.844 4.001 4c.271.27.562.506.864.72l-1.036 1.036c-1.782 1.783-2.852 4.086-3.075 6.565-2.45.132-4.877.768-7.072 1.866l-.423.212c-.361.182-.578.562-.55.966.029.403.298.749.682.877l5.525 1.842 1.842 5.524c.128.384.474.652.877.682.024.002.048.003.072.003.376-.001.723-.212.894-.552l.212-.424c1.097-2.194 1.733-4.62 1.866-7.07 2.475-.213 4.806-1.233 6.646-2.933l4.707-4.345c1.615-1.491 2.529-3.522 2.572-5.719.044-2.197-.787-4.262-2.341-5.816zm-1.41 1.421c.877.879 1.36 2.046 1.36 3.287 0 1.244-.484 2.414-1.365 3.293-1.814 1.815-4.771 1.815-6.585 0l-.642-.642c1.682-.017 3.361-.663 4.641-1.944 1.242-1.241 1.93-2.886 1.948-4.638l.639.638zm-4-4c.877.879 1.36 2.046 1.36 3.287 0 1.244-.484 2.414-1.365 3.293-1.813 1.817-4.769 1.816-6.602-.016l-.1-.096c1.658-.222 3.162-1.018 4.291-2.289 1.22-1.373 1.803-3.103 1.764-4.819l.648.633zm-7.398-9.721c.551 0 .999.448.999 1 0 .551-.448 1-.999 1-.552 0-1-.448-1-1s.448-1 1-1zm-6.972-4.557c-.391.276-.693.664-.865 1.118-.849-1.147-1.469-2.431-1.819-3.803zm.971 12.032v-10.061c0-.339.469-.531.706-.293l.508.509 2.086 2.086c-.187.391-.3.823-.3 1.284 0 1.654 1.346 3 3 3 .461 0 .893-.113 1.284-.3l2 2c1.873 1.874 1.962 4.892.202 6.872-.926 1.042-2.204 1.639-3.598 1.68-1.362.062-2.704-.479-3.689-1.466-1.418-1.419-2.199-3.305-2.199-5.311zm7.225 30.741-1.175-3.524c-.1-.299-.334-.533-.633-.633l-3.525-1.175c1.547-.533 3.178-.818 4.812-.859l1.38 1.38c-.042 1.635-.326 3.264-.859 4.811zm12.844-13.002-4.707 4.345c-1.61 1.487-3.676 2.345-5.855 2.439l-1.396-1.396c.099-2.16.987-4.177 2.527-5.716l1.516-1.516c.634.193 1.29.292 1.948.292 1.704-.001 3.409-.649 4.706-1.947 1.224-1.223 1.908-2.839 1.944-4.564.833 1.076 1.274 2.389 1.247 3.774-.033 1.647-.719 3.171-1.93 4.289z"/></g></symbol><symbol id="lobster" viewBox="0 0 64 64"><title>lobster</title><path d="m36.274 17.89 3.372 10.96c.235.762.354 1.555.354 2.353v1.797c0 4.418-3.582 8-8 8-4.418 0-8-3.582-8-8v-1.797c0-.797.119-1.59.354-2.353l3.372-10.96c.163-.529.652-.89 1.205-.89.617 0 1.143-.446 1.244-1.054l.66-3.96c.095-.569.588-.986 1.165-.986.577 0 1.07.417 1.164.986l.66 3.96c.102.608.628 1.054 1.244 1.054.554 0 1.043.361 1.206.89z" fill="#ee8041"/><path d="m27.748 17.846c-.006.016-.017.028-.022.044l-3.372 10.96c-.235.762-.354 1.555-.354 2.353v1.797c0 4.242 3.304 7.704 7.478 7.974 2.932-2.52 4.796-6.248 4.796-10.418.001-5.742-3.524-10.656-8.526-12.71z" fill="#f19846"/><path d="m39.637 28.821 2.188.787c.778.26 1.593.392 2.413.392 1.785 0 3.513-.626 4.884-1.768l3.878-3.232c-1.921 0-3.763-.763-5.121-2.121l-1.269-1.269c-.724-.724-1.226-1.63-1.46-2.61h-.15c-2.596 0-5.123.842-7.2 2.4l-.363.272 2.209 7.178z" fill="#d76e31"/><path d="m24.354 28.85 2.209-7.178-.363-.272c-2.077-1.558-4.604-2.4-7.2-2.4h-.151c-.234.98-.736 1.886-1.46 2.61l-1.268 1.268c-1.358 1.359-3.2 2.122-5.121 2.122l3.878 3.232c1.371 1.142 3.099 1.768 4.884 1.768.82 0 1.635-.132 2.412-.391l2.17-.727z" fill="#d76e31"/><path d="m40.916 36.853.435.849c.427.853.649 1.795.649 2.75 0 1.405-.48 2.76-1.35 3.846l-.001-.001.702 1.404c.305.609.505 1.264.595 1.935h-.002c.651.238 1.346.364 2.056.364 1.105 0 2-.895 2-2v-8c0-1.105-.895-2-2-2-1.098 0-2.158.3-3.076.848z" fill="#f19846"/><path d="m23.084 36.853-.435.849c-.427.853-.649 1.795-.649 2.75 0 1.405.48 2.76 1.35 3.846l.001-.001-.702 1.404c-.305.609-.505 1.264-.595 1.935h.002c-.651.238-1.346.364-2.056.364-1.105 0-2-.895-2-2v-8c0-1.105.895-2 2-2 1.098 0 2.158.3 3.076.848z" fill="#f19846"/><path d="m40.946 51.893.404.809c.428.853.65 1.795.65 2.75 0 1.631-.648 3.196-1.802 4.35-1.407 1.407-3.316 2.198-5.307 2.198h-5.782c-1.991 0-3.9-.791-5.307-2.198-1.154-1.154-1.802-2.719-1.802-4.35 0-.955.222-1.897.649-2.751l.404-.808h-.001c.218.324.469.628.749.908 1.408 1.408 3.317 2.199 5.308 2.199h5.782c1.991 0 3.9-.791 5.307-2.198.288-.288.545-.602.768-.937z" fill="#d76e31"/><path d="m40.648 44.297.702 1.404c.428.854.65 1.796.65 2.751 0 1.631-.648 3.196-1.802 4.35-1.407 1.407-3.316 2.198-5.307 2.198h-5.782c-1.991 0-3.9-.791-5.307-2.198-1.154-1.154-1.802-2.719-1.802-4.35 0-.955.222-1.897.649-2.751l.702-1.404-.001.001c.14.175.291.344.451.504 1.408 1.407 3.317 2.198 5.308 2.198h5.782c1.991 0 3.9-.791 5.307-2.198.16-.16.311-.329.451-.504z" fill="#ee8041"/><path d="m39.824 34.678 1.527 3.023c.427.854.649 1.796.649 2.751 0 1.631-.648 3.196-1.802 4.35-1.407 1.407-3.316 2.198-5.307 2.198h-5.782c-1.991 0-3.9-.791-5.307-2.198-1.154-1.154-1.802-2.719-1.802-4.35 0-.955.222-1.897.649-2.751l1.527-3.023c.772 3.613 3.981 6.322 7.824 6.322 3.866 0 7.091-2.742 7.837-6.388z" fill="#d76e31"/><path d="m39.061 26.95-1.94 1.929c-1.358 1.358-3.2 2.121-5.121 2.121-1.921 0-3.763-.763-5.121-2.121l-1.879-1.879-.07-.022 2.796-9.088c.163-.529.652-.89 1.205-.89.617 0 1.143-.446 1.244-1.054l.66-3.96c.095-.569.588-.986 1.165-.986.577 0 1.07.417 1.164.986l.66 3.96c.102.608.628 1.054 1.244 1.054.554 0 1.043.361 1.205.89z" fill="#f5ba5b"/><path d="m45 17.723c0 1.458.579 2.857 1.61 3.888l1.268 1.268c1.359 1.358 3.201 2.121 5.122 2.121 1.921 0 3.763-.763 5.121-2.121l2.101-2.101c1.138-1.138 1.778-2.683 1.778-4.293 0-5.433-2.158-10.643-6-14.485l-1.293 1.293c-.453.453-.707 1.067-.707 1.707 0 .64.254 1.254.707 1.707l.464.464c.53.53.828 1.25.828 2 .001 1.563-1.265 2.829-2.827 2.829h-1.509c-1.098 0-2.187.21-3.206.617-2.088.835-3.457 2.857-3.457 5.106z" fill="#ee8041"/><path d="m55.198 11.145c-.514.527-1.232.855-2.026.855h-1.509c-1.098 0-2.187.21-3.206.617-.945.378-1.743.999-2.333 1.774l-.145-.499c-.63-3.149-.063-6.419 1.589-9.172.268-.446.751-.72 1.273-.72.681 0 1.275.464 1.44 1.125.465 1.86 1.556 3.503 3.09 4.654z" fill="#ee8041"/><path d="m17.867 14.379.155-.486c.63-3.149.063-6.419-1.589-9.172-.269-.447-.752-.721-1.274-.721-.681 0-1.275.464-1.44 1.125-.465 1.86-1.556 3.503-3.09 4.654l-1.836 1.357c.515.533 1.236.864 2.035.864h1.509c1.098 0 2.187.21 3.206.617.94.376 1.734.993 2.324 1.762z" fill="#d76e31"/><g fill="#ee8041"><path d="m19 17.723c0 1.458-.579 2.857-1.61 3.888l-1.268 1.268c-1.359 1.358-3.201 2.121-5.122 2.121-1.921 0-3.763-.763-5.121-2.121l-2.101-2.101c-1.138-1.138-1.778-2.683-1.778-4.293 0-5.433 2.158-10.643 6-14.485l1.293 1.293c.453.453.707 1.067.707 1.707 0 .64-.254 1.254-.707 1.707l-.465.465c-.53.53-.828 1.249-.828 2 0 1.562 1.266 2.828 2.828 2.828h1.509c1.098 0 2.187.21 3.206.617 2.088.835 3.457 2.857 3.457 5.106z"/><g><path d=""/><path d="m22 40.452c0 1.388.473 2.725 1.324 3.805 3.107-.177 5.935-1.376 8.151-3.28-3.606-.234-6.563-2.852-7.298-6.299l-1.527 3.023c-.428.854-.65 1.796-.65 2.751z"/></g><path d="m10.629 9.778-1.836 1.357c.515.534 1.236.865 2.035.865h1.509c1.059 0 2.106.199 3.094.579.018-.269.041-.537.041-.811 0-2.327-.685-4.491-1.85-6.317-.507 1.724-1.55 3.245-2.993 4.327z"/></g><path d="m15.431 12.579c-.987-.38-2.035-.579-3.094-.579h-1.509c-1.562 0-2.828-1.266-2.828-2.828 0-.75.298-1.47.828-2l.464-.464c.454-.454.708-1.068.708-1.708s-.254-1.254-.707-1.707l-1.293-1.293c-3.842 3.842-6 9.052-6 14.485 0 1.61.64 3.154 1.778 4.293l2.1 2.101c.129.129.266.247.403.365 5.002-1.119 8.792-5.417 9.15-10.665z" fill="#f19846"/><path d="m58.553 11.473c0-3.35-1.239-6.405-3.273-8.753l-.573.573c-.453.453-.707 1.067-.707 1.707s.254 1.254.707 1.707l.464.464c.53.53.828 1.25.828 2 .001 1.563-1.265 2.829-2.827 2.829h-1.509c-1.098 0-2.187.21-3.206.617-2.088.835-3.457 2.857-3.457 5.106 0 1.458.579 2.857 1.61 3.888l1.268 1.268c.495.495 1.056.909 1.66 1.238 5.244-1.815 9.015-6.784 9.015-12.644z" fill="#f19846"/><g><path d="m56.707 1.293c-.391-.391-1.023-.391-1.414 0l-1.293 1.293c-.645.644-1 1.502-1 2.414s.355 1.77 1 2.414l.464.464c.346.346.536.805.536 1.293 0 .18-.034.351-.083.516l-.945-.709c-1.346-1.01-2.312-2.464-2.72-4.097-.278-1.107-1.27-1.881-2.411-1.881-.868 0-1.684.462-2.131 1.207l-.181.301c-1.667 2.779-2.236 6.06-1.6 9.238l.096.481c-.651 1.02-1.025 2.22-1.025 3.496 0 .107.01.212.016.318-.317.025-.633.064-.947.111l-.624-2.496c-.393-1.569-1.779-2.648-3.414-2.633-.913.011-1.772.373-2.417 1.019l-1.781 1.78c-.005-.015-.02-.024-.022-.04l-.66-3.96c-.177-1.056-1.081-1.822-2.151-1.822s-1.974.766-2.151 1.822l-.66 3.96c-.003.016-.017.025-.022.04l-1.781-1.78c-.646-.646-1.504-1.007-2.418-1.019-.014 0-.027 0-.041 0-1.6 0-2.983 1.078-3.372 2.633l-.624 2.496c-.314-.048-.63-.087-.947-.111.006-.106.016-.212.016-.318 0-1.275-.374-2.476-1.025-3.496l.096-.481c.636-3.178.067-6.459-1.6-9.238l-.181-.302c-.447-.744-1.263-1.206-2.131-1.206-1.142 0-2.133.774-2.411 1.882-.408 1.632-1.374 3.086-2.72 4.096l-.945.71c-.049-.165-.083-.336-.083-.517 0-.488.19-.947.536-1.293l.464-.464c.645-.644 1-1.502 1-2.414s-.355-1.77-1-2.414l-1.293-1.293c-.391-.391-1.023-.391-1.414 0-4.058 4.058-6.293 9.454-6.293 15.192 0 1.889.735 3.665 2.071 5l2.101 2.101c1.465 1.465 3.387 2.301 5.444 2.395l3.622 3.019c1.031.859 2.249 1.455 3.541 1.761l-.749 2.997 1.94.484.811-3.244c.922-.002 1.834-.149 2.709-.441l.572-.191c-.026.279-.062.556-.062.837v1.797c0 .531.055 1.048.144 1.554l-.5.972c-.838-.342-1.734-.526-2.644-.526-1.654 0-3 1.346-3 3v8c0 1.654 1.346 3 3 3 .345 0 .685-.039 1.023-.089.07 1.062.377 2.098.892 3.024l-.16.32c-.494.987-.755 2.093-.755 3.197 0 1.883.764 3.727 2.095 5.057 1.606 1.606 3.742 2.491 6.014 2.491h5.782c2.272 0 4.408-.885 6.014-2.491 1.331-1.33 2.095-3.174 2.095-5.057 0-1.104-.261-2.21-.755-3.198l-.16-.32c.515-.926.822-1.961.892-3.024.338.051.678.09 1.023.09 1.654 0 3-1.346 3-3v-8c0-1.654-1.346-3-3-3-.91 0-1.806.184-2.644.526l-.5-.972c.089-.506.144-1.023.144-1.554v-1.797c0-.281-.036-.558-.062-.837l.572.191c.876.292 1.787.439 2.71.441l.811 3.244 1.94-.484-.749-2.997c1.293-.306 2.51-.901 3.541-1.761l3.622-3.019c2.057-.094 3.979-.93 5.444-2.395l2.101-2.101c1.336-1.335 2.071-3.111 2.071-5-.001-5.738-2.236-11.134-6.294-15.192zm-8.463 4.243.181-.301c.201-.336.791-.248.886.131.519 2.076 1.748 3.927 3.46 5.211l.543.407c-.048.005-.094.016-.143.016h-1.509c-1.231 0-2.435.232-3.578.689-.484.194-.923.453-1.335.743-.271-2.394.245-4.811 1.495-6.896zm-9.189 9.486h.017c.68 0 1.267.458 1.432 1.119l.616 2.464c-1.102.345-2.159.831-3.133 1.454l-.758-2.462c-.1-.327-.272-.613-.49-.853l1.288-1.288c.275-.275.64-.429 1.028-.434zm-.365 14.123c.206.667.31 1.359.31 2.059v1.796c0 3.859-3.14 7-7 7s-7-3.141-7-7v-1.797c0-.699.104-1.392.31-2.059l.099-.321.763.763c1.557 1.557 3.626 2.414 5.828 2.414s4.271-.857 5.828-2.414l.763-.763zm.801 22.95c-1.229 1.228-2.862 1.905-4.6 1.905h-5.782c-1.738 0-3.371-.677-4.6-1.905-.959-.959-1.509-2.286-1.509-3.643 0-.796.188-1.592.544-2.304l.08-.16c1.533 1.3 3.453 2.012 5.485 2.012h5.782c2.032 0 3.952-.712 5.485-2.011l.08.16c.356.711.544 1.507.544 2.303 0 1.357-.55 2.684-1.509 3.643zm0-8c-1.229 1.228-2.862 1.905-4.6 1.905h-5.782c-1.738 0-3.371-.677-4.6-1.905-.959-.959-1.509-2.286-1.509-3.643 0-.796.188-1.592.539-2.294l.5-.973c1.509 2.859 4.509 4.815 7.961 4.815s6.452-1.955 7.961-4.815l.495.963c.356.712.544 1.508.544 2.304 0 1.357-.55 2.684-1.509 3.643zm-8.329-27.984.66-3.959c.014-.089.09-.152.178-.152s.164.063.178.151l.66 3.96c.183 1.095 1.121 1.889 2.23 1.889.114 0 .216.076.25.184l2.608 8.476-1.512 1.512c-1.179 1.179-2.747 1.828-4.414 1.828s-3.235-.649-4.414-1.828l-1.512-1.512 2.608-8.476c.033-.108.136-.184.25-.184 1.109 0 2.047-.794 2.23-1.889zm-7.666.03c.167-.667.725-1.123 1.449-1.119.388.004.753.158 1.028.433l1.288 1.288c-.217.24-.389.527-.49.853l-.758 2.462c-.975-.623-2.031-1.109-3.133-1.454zm-12.267-5.563c1.712-1.284 2.941-3.135 3.46-5.21.096-.381.685-.467.886-.133l.181.302c1.25 2.084 1.766 4.501 1.494 6.896-.412-.29-.851-.55-1.335-.743-1.143-.458-2.346-.69-3.578-.69h-1.509c-.049 0-.095-.011-.143-.014zm-6.744 9.493c-.958-.958-1.485-2.231-1.485-3.586 0-4.87 1.775-9.467 5.018-13.053l.568.568c.263.263.414.628.414 1s-.151.737-.414 1l-.464.464c-.724.724-1.122 1.685-1.122 2.707 0 2.112 1.717 3.829 3.829 3.829h1.509c.976 0 1.93.184 2.835.546 1.717.687 2.827 2.327 2.827 4.177 0 1.202-.468 2.331-1.317 3.181l-1.269 1.269c-1.179 1.178-2.747 1.827-4.414 1.827s-3.235-.649-4.414-1.828zm11.033 7.393-2.166-1.805c1.299-.385 2.491-1.088 3.476-2.073l1.269-1.269c.662-.662 1.157-1.444 1.479-2.294.29.016.579.043.867.081l-2.175 8.701c-1.001-.23-1.953-.677-2.75-1.341zm6.34 1.196c-.51.17-1.038.269-1.569.309l2.106-8.424c1.07.347 2.084.86 3.002 1.516l-1.858 6.04zm-2.858 17.34v-8c0-.552.449-1 1-1 .592 0 1.175.115 1.727.319-.473.972-.727 2.052-.727 3.133 0 1.4.423 2.777 1.187 3.938l-.432.864c-.251.503-.441 1.037-.568 1.585-.389.095-.784.161-1.187.161-.551 0-1-.448-1-1zm20.491 13.095c-1.229 1.228-2.862 1.905-4.6 1.905h-5.782c-1.738 0-3.371-.677-4.6-1.905-.959-.959-1.509-2.286-1.509-3.643 0-.595.105-1.19.307-1.75 1.581 1.479 3.626 2.298 5.802 2.298h5.782c2.176 0 4.221-.819 5.802-2.298.202.56.307 1.155.307 1.75 0 1.357-.55 2.684-1.509 3.643zm5.509-21.095v8c0 .552-.449 1-1 1-.403 0-.798-.066-1.187-.161-.127-.548-.316-1.082-.568-1.585l-.432-.864c.764-1.161 1.187-2.538 1.187-3.938 0-1.077-.253-2.154-.728-3.133.552-.204 1.135-.319 1.728-.319.551 0 1 .448 1 1zm-2.858-9.34-1.68-.56-1.858-6.04c.918-.656 1.932-1.169 3.002-1.516l2.106 8.424c-.532-.039-1.06-.138-1.57-.308zm6.34-1.196c-.797.664-1.749 1.111-2.75 1.342l-2.175-8.701c.288-.039.577-.066.867-.081.322.85.817 1.632 1.479 2.294l1.269 1.269c.985.985 2.176 1.688 3.476 2.073zm11.033-7.393-2.101 2.101c-1.179 1.179-2.747 1.828-4.414 1.828s-3.235-.649-4.414-1.828l-1.269-1.269c-.849-.849-1.317-1.979-1.317-3.18 0-1.85 1.11-3.489 2.828-4.177.905-.362 1.859-.546 2.835-.546h1.509c2.111 0 3.828-1.717 3.828-3.829 0-1.022-.398-1.984-1.122-2.707l-.464-.464c-.263-.263-.414-.628-.414-1s.151-.737.414-1l.568-.568c3.243 3.586 5.018 8.183 5.018 13.053 0 1.355-.527 2.628-1.485 3.586z"/><path d="m28 23.5c0 .827.673 1.5 1.5 1.5s1.5-.673 1.5-1.5-.673-1.5-1.5-1.5-1.5.673-1.5 1.5z"/><path d="m34.5 25c.827 0 1.5-.673 1.5-1.5s-.673-1.5-1.5-1.5-1.5.673-1.5 1.5.673 1.5 1.5 1.5z"/></g></symbol><symbol id="shrimp-1" viewBox="0 0 512 512"><title>shrimp-1</title><g><path d="m291.399 170.489h92.501c66.692 0 120.756 54.064 120.756 120.756 0 58.171-41.473 108.075-98.663 118.718l-47.047 8.755-19.933-51.754 55.879-34.141c8.385-5.123 13.499-14.241 13.499-24.067 0-15.577-12.627-28.204-28.204-28.204h-89.921z" fill="#fd7e42"/></g><g><g><path d="m440.499 184.556c25.041 22.126 40.838 54.475 40.838 90.518 0 58.171-41.473 108.075-98.663 118.717l-31.1 5.788 7.371 19.138 47.047-8.755c57.189-10.643 98.663-60.546 98.663-118.717.001-46.238-25.991-86.399-64.156-106.689z" fill="#fc5327"/></g></g><g><path d="m394.849 226.027c10.646 3.678 27.289-16.146 38.395-45.025-12.931-5.797-27.068-9.38-41.929-10.28-7.872 27.955-6.652 51.786 3.534 55.305z" fill="#fc5327"/></g><g><path d="m481.284 219.842c-25.671 17.682-41.19 38.709-35.066 48.233 5.785 8.996 28.924 4.674 54.006-9.336-3.957-14.192-10.443-27.328-18.94-38.897z" fill="#fc5327"/></g><g><path d="m499.553 325.936c-26.57-7.733-49.009-6.851-52.668 2.909-3.453 9.211 10.899 23.459 33.626 34.818 8.444-11.26 14.928-24.01 19.042-37.727z" fill="#fc5327"/></g><g><path d="m481.107 267.715c6.052-2.279 12.515-5.288 19.117-8.976-3.958-14.192-10.443-27.328-18.94-38.897-3.475 2.394-6.756 4.849-9.831 7.328 5.432 12.555 8.792 26.212 9.654 40.545z" fill="#ed4322"/></g><g><path d="m472.307 320.894c-4.01 9.768-9.26 18.926-15.59 27.251 5.917 5.288 14.088 10.666 23.795 15.518 8.443-11.26 14.927-24.01 19.041-37.727-9.911-2.884-19.245-4.568-27.246-5.042z" fill="#ed4322"/></g><g><path d="m325.094 352.497-103.283 21.282c-6.238 1.285-9.87 7.822-7.666 13.798 1.55 4.202 5.614 6.942 10.091 6.802l50.513-1.575c2.255-.07 3.119 2.911 1.176 4.057l-46.515 27.459c-9.463 5.586-4.099 20.128 6.725 18.232l53.204-9.324c2.222-.389 3.5 2.439 1.74 3.849l-39.436 31.604c-3.495 2.801-4.807 7.523-3.257 11.725 2.204 5.976 9.21 8.589 14.789 5.515l92.364-50.884c15.566-8.575 22.526-27.24 16.376-43.913l-5.853-15.866c-6.149-16.674-23.563-26.348-40.968-22.761z" fill="#fd7e42"/></g><g><path d="m371.916 391.124-5.852-15.866c-5.109-13.851-17.992-22.863-32.184-23.464l.756 2.05c6.15 16.673-.81 35.338-16.376 43.913l-80.932 44.586 52.012-9.116c2.222-.389 3.5 2.439 1.74 3.849l-39.436 31.604c-3.495 2.801-4.807 7.523-3.257 11.725 2.204 5.976 9.211 8.589 14.789 5.515l92.364-50.884c15.566-8.574 22.526-27.238 16.376-43.912z" fill="#fc5327"/></g><g><path d="m324.348 226.57c0 45.049-4.628 81.568-49.677 81.568s-205.147-36.519-205.147-81.568 160.098-81.568 205.146-81.568 49.678 36.52 49.678 81.568z" fill="#fd7e42"/></g><g><path d="m275.199 145.016c4.007 13.663 4.788 30.671 4.788 49.113 0 45.049-4.628 81.568-49.677 81.568-29.232 0-106.898-15.381-157.838-38.488 21.958 40.021 160.756 70.929 202.199 70.929 45.049 0 49.677-36.519 49.677-81.568 0-44.867-4.604-81.262-49.149-81.554z" fill="#fc5327"/></g><g><circle cx="156.842" cy="218.776" fill="#554e57" r="19.855"/></g><g><path d="m162.488 199.747c.531 1.791.826 3.683.826 5.646 0 10.966-8.889 19.855-19.855 19.855-1.963 0-3.855-.296-5.646-.826 2.434 8.213 10.026 14.209 19.029 14.209 10.966 0 19.855-8.89 19.855-19.855 0-9.002-5.996-16.595-14.209-19.029z" fill="#453e43"/></g><g><path d="m486.575 368.078c23.363-31.209 31.362-73.555 20.915-111.143-.017-.07-.02-.141-.04-.211-4.154-14.898-10.924-28.8-20.12-41.322-.171-.233-.355-.449-.547-.656-24.162-32.412-62.504-51.758-102.883-51.758h-62.071c-8.927-16.904-24.767-25.486-47.158-25.486-12.524 0-32.855 2.622-55.781 7.194-4.062.81-6.699 4.76-5.889 8.823.809 4.063 4.76 6.696 8.823 5.889 21.679-4.323 41.435-6.904 52.847-6.904 35.653 0 42.176 24.943 42.176 74.067s-6.523 74.067-42.176 74.067c-21.348 0-72.212-8.995-117.159-23.527-50.398-16.294-80.487-35.188-80.487-50.54 0-9.265 11.573-20.368 32.587-31.264 24.484-12.695 55.638-22.171 77.463-27.885 4.008-1.049 6.406-5.148 5.356-9.156-1.049-4.008-5.148-6.41-9.156-5.356-22.563 5.907-54.856 15.747-80.569 29.079-26.996 13.998-40.683 28.997-40.683 44.581 0 5.345 1.597 10.6 4.747 15.761-21.995-9.957-35.32-23.52-37.715-39.13-3.049-19.876 12.462-42.684 42.554-62.576 32.233-21.307 77.162-37.209 126.512-44.779 75.953-11.648 147.909-.666 179.053 27.333 3.081 2.769 7.823 2.517 10.592-.564 2.77-3.08 2.518-7.823-.563-10.593-34.838-31.32-109.948-43.492-191.356-31.004-41.675 6.392-80.469 18.582-111.778 34.93 15.72-13.288 33.626-26.052 53.209-37.562 66.247-38.938 137.155-55.371 176.452-40.889 3.886 1.433 8.199-.557 9.631-4.444 1.433-3.887-.557-8.199-4.444-9.632-43.956-16.197-118.239.299-189.24 42.032-44.872 26.374-82.398 59.331-105.665 92.798-24.429 35.138-30.46 67.118-16.982 90.048 11.501 19.567 35.918 29.891 69.053 29.891 10.583 0 22.059-1.055 34.284-3.197 11.977 5.626 26.147 11.094 42.53 16.391 46.958 15.182 98.792 24.255 121.774 24.255 14.017 0 25.45-3.384 34.248-10.042.344 10.456 2.977 16.993 3.16 17.451 1.64 4.093 5.975 5.525 9.802 4.055 3.827-1.587 5.642-5.975 4.055-9.802-.052-.126-4.607-11.993.027-29.25h16.604c-6.417 18.376-3.29 32.068-3.069 32.731 1.647 4.952 5.281 6.394 9.064 5.509 4.025-.982 6.491-5.04 5.509-9.064-.032-.132-2.746-12.697 4.633-29.176h16.506c-18.493 16.59-21.431 34.574-21.569 35.492-.616 4.097 2.201 7.946 6.298 8.561 3.71.548 7.364-1.87 8.528-6.273.206-.78 3.359-18.654 24.991-32.949 4.538 3.801 7.433 9.502 7.433 15.871 0 7.163-3.797 13.932-9.909 17.667l-37.779 23.083c-8.736-4.769-19.131-6.514-29.622-4.354l-103.282 21.283c-5.116 1.054-9.505 4.277-12.042 8.844-2.537 4.566-2.955 9.996-1.147 14.896 2.671 7.241 9.672 11.948 17.361 11.704l29.779-.928-28.651 16.913c-7.353 4.34-10.424 12.966-7.469 20.977 2.954 8.011 10.89 12.579 19.302 11.102l32.771-5.743-23.249 18.632c-6.023 4.826-8.274 12.933-5.604 20.174 1.808 4.901 5.651 8.759 10.546 10.583 5.047 1.811 10.013 1.446 14.9-1.094l44.935-24.755c3.628-1.999 4.949-6.561 2.95-10.189-2-3.629-6.562-4.948-10.189-2.95l-44.935 24.756c-2.649 1.46-6.185-2.445-3.222-4.818l39.436-31.604c3.452-2.766 4.59-7.513 2.768-11.543-1.823-4.031-6.142-6.313-10.493-5.547l-53.204 9.324c-2.978-.562-3.517-2.023-1.617-4.384l46.515-27.458c3.808-2.248 5.608-6.785 4.377-11.033-1.232-4.247-5.179-7.1-9.599-6.981l-50.513 1.574c-3.816.165-3.618-5.15-.678-5.756l103.283-21.283c13.882-2.858 27.515 4.715 32.419 18.01l5.852 15.867c4.905 13.296-.545 27.909-12.958 34.748l-15.759 8.682c-3.628 1.999-4.949 6.561-2.95 10.189 1.998 3.628 6.56 4.949 10.189 2.95l15.759-8.682c8.042-4.431 14.161-11.002 17.981-18.646l30.225-5.624c32.591-6.065 60.381-24.157 79.139-49.164.023-.032.047-.064.068-.097zm-466.612-127.38c-4.724-8.036-5.974-17.753-4.201-28.55 6.685 22.118 29.21 40.075 63.735 50.97-29.121.632-50.583-7.191-59.534-22.42zm377.008-61.95c4.203.485 8.385 1.205 12.508 2.155 4.781 1.108 9.444 2.525 13.973 4.219-10.799 24.761-22.418 33.88-25.735 33.879-.16 0-.3-.021-.42-.063-2.405-.831-6.503-14.387-.326-40.19zm7.65 223.84-23.059 4.291c.444-6.051-.373-12.289-2.609-18.35l-5.852-15.867c-1.812-4.912-4.409-9.306-7.598-13.094l33.299-20.345c10.541-6.44 17.089-18.115 17.089-30.468 0-19.688-16.017-35.705-35.705-35.705h-52.17c3.065-13.007 3.832-28.392 3.832-46.48 0-19.068-.843-35.141-4.342-48.581h54.267c-5.203 23.803-5.083 49.7 10.626 55.127 1.717.593 3.446.876 5.184.876 14.484-.003 29.369-19.656 39.527-42.699 12.802 6.843 24.141 16.072 33.423 27.091-3.171 2.408-6.214 4.873-9.059 7.388-3.104 2.743-3.396 7.484-.653 10.587 2.743 3.104 7.484 3.395 10.587.653 2.517-2.225 5.197-4.419 8.009-6.56 4.871 7.627 8.856 15.872 11.805 24.591-23.359 11.875-37.337 11.084-38.695 8.975-.11-.172-.304-.994.125-2.702 1.007-4.018-1.433-8.093-5.451-9.1-4.019-1.005-8.092 1.433-9.1 5.451-1.737 6.928.025 11.691 1.809 14.466 3.73 5.801 10.273 8.148 18.215 8.148 10.92-.001 24.479-4.443 36.992-10.448 1.333 6.936 2.039 14.093 2.039 21.412 0 8.746-1.006 17.292-2.908 25.522-23.738-5.716-48.641-5.873-54.386 9.446-5.196 13.859 10.454 28.873 29.13 39.752-16.285 18.548-38.632 31.833-64.371 36.623zm73.573-48.634c-7.895-4.419-14.499-9.198-18.95-13.75-9.397-9.61-2.181-11.951 8.557-11.951 6.379 0 13.97.999 22.082 2.895-3.02 8.03-6.931 15.66-11.689 22.806z"/><path d="m129.486 218.776c0 15.084 12.272 27.356 27.356 27.356s27.356-12.272 27.356-27.356-12.272-27.356-27.356-27.356-27.356 12.272-27.356 27.356zm39.711 0c0 6.812-5.542 12.355-12.355 12.355s-12.355-5.542-12.355-12.355 5.542-12.355 12.355-12.355 12.355 5.543 12.355 12.355z"/></g></symbol><symbol id="gold-shrimp-1" viewBox="0 0 512.005 512.005"><title>gold-shrimp-1</title><g transform="translate(0 -1)"> <g> <path style="fill:#FFA800;" d="M443.735,120.472L237.57,186.776c-9.61,1.137-19.053-3.174-24.491-11.179l-0.939-1.536 c-15.937-23.809-24.432-51.819-24.405-80.469v-7.253c0.052-14.117,11.483-25.548,25.6-25.6h213.334l-51.2,42.667L443.735,120.472z "/> <path style="fill:#FFA800;" d="M332.802,444.738c0,5.546-1.877,10.667-13.397,21.248l-10.155,2.304 c-0.655,0.014-1.311-0.014-1.963-0.085l-12.971-1.109l-2.645-0.171l-27.733-2.304l-33.536-2.816v-34.133l33.536-2.817h0.683 l27.051-2.304h0.085l2.56-0.17l12.971-1.109c4.163-0.325,8.339,0.44,12.117,2.219C327.596,427.395,332.81,435.664,332.802,444.738 L332.802,444.738z"/> <path style="fill:#FFA800;" d="M320.77,466.072l-24.661,30.72c-3.215,4.338-8.129,7.099-13.507,7.588s-10.709-1.34-14.653-5.028 c-0.512-0.426-0.939-0.852-1.451-1.365l-33.792-33.877l-1.024-1.025l-1.28-1.279l1.365,0.085l64,2.987l23.637,1.109 L320.77,466.072z"/> <path style="fill:#FFA800;" d="M320.77,423.405l-1.365,0.085l-23.637,1.109l-65.365,3.072l2.304-2.304l33.792-33.877 c0.512-0.513,0.939-0.94,1.451-1.365c3.945-3.687,9.276-5.516,14.653-5.027s10.291,3.249,13.507,7.587L320.77,423.405z"/> </g> <g> <path style="fill:#FEDD0A;" d="M401.069,129.005l-175.36,56.405c-5.165-1.81-9.599-5.255-12.629-9.813l-0.939-1.536 c-15.937-23.809-24.432-51.819-24.405-80.469v-7.253c-0.014-6.309,2.329-12.396,6.571-17.067h189.696l-51.2,42.667 L401.069,129.005z"/> <polygon style="fill:#FEDD0A;" points="231.682,463.085 230.402,461.805 230.402,427.672 231.682,426.392 "/> <path style="fill:#FEDD0A;" d="M232.706,425.368l48.981-4.096c3.381-0.277,6.782,0.159,9.984,1.28h0.085 c0.698,0.277,1.382,0.591,2.048,0.939c0.682,0.319,1.338,0.69,1.963,1.109c7.091,4.231,11.435,11.881,11.435,20.139 s-4.343,15.907-11.435,20.139l-1.963,1.109h-0.085l-2.048,0.939l-8.021,1.365c-0.655,0.014-1.311-0.014-1.963-0.085l-48.981-4.096 L232.706,425.368L232.706,425.368z"/> <path style="fill:#FEDD0A;" d="M232.706,464.109l33.792,33.877c0.512,0.512,0.939,0.939,1.451,1.365 c0.853-0.768,1.707-1.621,2.56-2.56l23.808-29.696l0.853-1.024l-1.365-0.085h-0.085l-29.781-1.365l-32.256-1.536L232.706,464.109z "/> <path style="fill:#FEDD0A;" d="M231.682,426.392l31.915-1.536h1.024l29.184-1.365l1.365-0.085l-0.853-1.024l-23.808-29.696 c-0.853-0.939-1.707-1.792-2.56-2.56c-0.512,0.427-0.939,0.853-1.451,1.365l-33.792,33.877L231.682,426.392z"/> </g> <path style="fill:#FFFFFF;" d="M221.186,461.549c-108.8-4.523-195.584-89.515-195.584-193.877 c0-89.685,64.171-165.205,151.467-187.392c3.499-0.939,7.083-1.792,10.667-2.475l1.365,0.513c-0.936,2.569-1.398,5.287-1.365,8.021 v7.253c-0.034,21.75,4.868,43.224,14.336,62.805c-12.006-21.616-18.319-45.93-18.347-70.656V80.28 c-76.373,22.187-132.523,97.707-132.523,187.392C51.202,371.607,126.551,456.344,221.186,461.549z"/> <g> <path style="fill:#FEDD0A;" d="M230.402,427.672v34.133c-3.072,0-6.144-0.085-9.216-0.256 c-94.635-5.205-169.984-89.942-169.984-193.877c0-89.685,56.149-165.205,132.523-187.392v5.46 c0.028,24.726,6.341,49.04,18.347,70.656c0.131,0.219,0.245,0.447,0.341,0.683c1.365,2.901,2.901,5.717,4.437,8.533 c0.768,1.279,1.621,2.645,2.389,3.925l-4.437,5.376c-44.117,11.007-76.8,46.422-76.8,120.661 C128.002,378.178,173.911,427.672,230.402,427.672z"/> <path style="fill:#FEDD0A;" d="M207.277,165.101l-0.427,0.513c-1.536-2.817-3.072-5.632-4.437-8.533 C203.949,159.81,205.57,162.455,207.277,165.101z"/> </g> <path style="fill:#FFA800;" d="M230.402,427.672v6.998c-70.571,0-128-51.712-128-137.985c0-77.481,40.875-114.516,96-125.951 l5.547-5.632c-17.261-22.874-26.688-50.704-26.88-79.36v-5.461c3.499-0.939,7.083-1.792,10.667-2.475l1.365,0.513 c-0.936,2.569-1.398,5.287-1.365,8.021v7.253c-0.025,26.822,7.421,53.12,21.504,75.947l-4.437,5.376 c-44.117,11.007-76.8,46.422-76.8,120.661C128.002,378.178,173.911,427.672,230.402,427.672z"/> <g> <path d="M230.402,470.338c-117.633,0-213.333-90.917-213.333-202.667c0-95.208,71.071-178.583,168.988-198.233 c1.57-0.312,3.197-0.179,4.696,0.383l1.367,0.517c2.122,0.801,3.837,2.415,4.767,4.484s0.997,4.423,0.187,6.541 c-0.566,1.596-0.839,3.282-0.804,4.975v7.25c-0.027,25.239,6.978,49.986,20.229,71.467c1.922,3.11,1.649,7.098-0.679,9.917 l-4.437,5.375c-1.16,1.409-2.742,2.408-4.513,2.85c-46.671,11.642-70.334,49.45-70.334,112.375 c0,72.75,38.6,123.567,93.867,123.567c2.263-0.001,4.434,0.898,6.035,2.499c1.6,1.6,2.499,3.771,2.499,6.035v34.133 c0.001,2.263-0.898,4.434-2.499,6.035S232.665,470.339,230.402,470.338z M179.202,88.497 c-84.658,21.592-145.067,95.4-145.067,179.175c0,99.633,83.454,181.183,187.733,185.425v-17.225 c-60.725-4.817-102.4-61.15-102.4-140.3c0-85.975,41.879-117.067,78.875-127.758c-12.576-22.716-19.163-48.26-19.142-74.225 v-5.092H179.202z"/> <path d="M234.323,195.505c-11.387,0.011-22.023-5.68-28.333-15.158l-1.129-1.833c-0.917-1.367-1.908-2.9-2.9-4.525 c-14.909-24.165-22.79-52.006-22.758-80.4v-7.25c-0.038-3.773,0.616-7.521,1.929-11.058c4.616-13.846,17.609-23.156,32.204-23.075 h213.333c3.594-0.001,6.804,2.25,8.027,5.629c1.223,3.379,0.198,7.163-2.564,9.463L393.84,99.206l51.967,12.992 c3.697,0.924,6.333,4.187,6.459,7.996c0.126,3.808-2.289,7.239-5.917,8.404l-206.167,66.3c-0.508,0.159-1.03,0.274-1.558,0.341 C237.197,195.418,235.76,195.507,234.323,195.505z M213.335,69.272c-7.34-0.021-13.853,4.701-16.117,11.683 c-0.651,1.719-0.973,3.545-0.95,5.383v7.25c-0.027,25.239,6.978,49.986,20.229,71.467c0.905,1.475,1.796,2.842,2.758,4.3 l1.1,1.792c3.453,5.033,9.361,7.801,15.437,7.233l176.871-56.883l-39.267-9.817c-3.116-0.78-5.53-3.245-6.246-6.376 c-0.716-3.132,0.387-6.4,2.854-8.457l33.092-27.576L213.335,69.272L213.335,69.272z"/> <path d="M315.735,103.405c-2.854,0.027-5.529-1.388-7.113-3.763c-1.584-2.374-1.863-5.388-0.742-8.012 c0.433-1.035,1.04-1.988,1.796-2.817c2.451-2.426,6.123-3.133,9.3-1.792c2.143,0.777,3.831,2.465,4.608,4.608 c0.479,1.012,0.713,2.123,0.684,3.243c0.017,1.11-0.187,2.212-0.6,3.242c-0.496,1.019-1.126,1.966-1.875,2.817 C320.188,102.534,318.005,103.426,315.735,103.405L315.735,103.405z"/> <path d="M309.252,476.822c-1.002,0.017-2.004-0.034-3-0.15l-76.558-6.367c-4.423-0.366-7.826-4.062-7.825-8.5v-34.133 c-0.001-4.438,3.402-8.134,7.825-8.5l76.883-6.4c6.161-0.487,12.333,0.784,17.8,3.667c10.453,5.569,16.977,16.456,16.958,28.3 c0,8.3-3.712,15.008-14.717,26.608c-0.622,0.656-1.345,1.207-2.142,1.633C319.798,475.5,314.567,476.82,309.252,476.822z M238.935,453.955l69.058,5.75c0.418,0.049,0.838,0.066,1.258,0.05c2.072-0.002,4.122-0.43,6.021-1.258 c8.996-9.65,8.996-12.108,8.996-13.758c0.021-5.519-3.004-10.599-7.867-13.208c-2.625-1.344-5.566-1.949-8.508-1.75l-68.958,5.742 V453.955z"/> <path d="M280.785,513.005c-7.71-0.166-15.031-3.413-20.329-9.017l-36.092-36.158c-2.172-2.153-3.026-5.304-2.236-8.259 c0.789-2.955,3.1-5.261,6.057-6.044c2.957-0.783,6.106,0.077,8.255,2.253l36.096,36.158c2.128,2.486,5.22,3.939,8.492,3.992 c3.428-0.362,6.565-2.093,8.7-4.8l24.388-30.4c1.9-2.404,4.943-3.605,7.973-3.147c3.03,0.459,5.581,2.507,6.684,5.366 s0.588,6.09-1.348,8.465l-24.658,30.716c-5.246,6.434-12.95,10.372-21.238,10.858 C281.281,512.997,281.031,513.005,280.785,513.005z"/> <path d="M230.402,436.205c-3.45,0.002-6.561-2.075-7.883-5.262c-1.322-3.187-0.593-6.856,1.846-9.296l36.096-36.158 c5.474-5.786,13.102-9.044,21.066-9c8.15,0.448,15.746,4.267,20.966,10.542l24.929,31.033c1.937,2.375,2.451,5.606,1.348,8.465 s-3.654,4.907-6.684,5.366s-6.073-0.742-7.973-3.147l-24.658-30.717c-2.106-2.551-5.137-4.163-8.429-4.483l-0.25-0.009 c-3.162,0.209-6.118,1.644-8.237,4l-36.1,36.158C234.843,435.306,232.669,436.209,230.402,436.205L230.402,436.205z"/> <path d="M377.094,231.405c-50.656,0.44-95.872-31.687-112.125-79.667c-0.959-2.894-0.301-6.079,1.726-8.356s5.115-3.3,8.1-2.683 c2.986,0.617,5.415,2.779,6.374,5.673c16.019,46.102,62.666,74.197,110.908,66.798s84.325-48.181,85.792-96.965 c-0.802-54.896-45.877-98.789-100.775-98.133h-69.892c-4.713,0-8.533-3.821-8.533-8.533s3.821-8.533,8.533-8.533h69.892 c64.321-0.65,117.033,50.881,117.842,115.2C494.127,180.524,441.414,232.055,377.094,231.405L377.094,231.405z"/> <path d="M196.269,350.872c-2.264,0.003-4.435-0.897-6.033-2.5l-15.604-15.6c-4.811-4.785-11.315-7.48-18.1-7.5h-19.996 c-4.713,0-8.533-3.821-8.533-8.533c0-4.713,3.82-8.533,8.533-8.533h19.996c11.321-0.029,22.184,4.472,30.167,12.5l15.604,15.6 c2.44,2.44,3.169,6.11,1.849,9.298C202.83,348.792,199.72,350.871,196.269,350.872z"/> <path d="M204.798,316.738c-2.065,0.003-4.06-0.746-5.612-2.108l-17.833-15.6c-6.146-5.167-13.938-7.966-21.967-7.892h-22.85 c-4.713,0-8.533-3.821-8.533-8.533c0-4.713,3.82-8.533,8.533-8.533h22.85c12.169-0.117,23.967,4.185,33.204,12.108l17.829,15.6 c2.676,2.342,3.619,6.097,2.369,9.425C211.537,314.534,208.354,316.738,204.798,316.738z"/> <path d="M187.74,385.005c-2.492,0.004-4.861-1.083-6.483-2.975l-13.375-15.6c-3.464-4.328-8.666-6.901-14.208-7.025h-17.137 c-4.713,0-8.533-3.82-8.533-8.533s3.82-8.533,8.533-8.533h17.137c10.515,0.155,20.437,4.894,27.167,12.975l13.375,15.6 c2.167,2.531,2.664,6.091,1.273,9.118S191.071,385.001,187.74,385.005L187.74,385.005z"/> <path d="M247.456,299.672c-4.241-0.006-7.834-3.126-8.433-7.325l-6.004-42.025c-1.189-8.318-6.382-15.524-13.896-19.284 l-52.271-26.133c-4.2-2.117-5.896-7.232-3.792-11.438c2.103-4.206,7.213-5.919,11.426-3.829l52.271,26.133 c12.524,6.262,21.177,18.272,23.154,32.133l6.004,42.025c0.667,4.665-2.572,8.989-7.237,9.658 C248.273,299.645,247.865,299.673,247.456,299.672L247.456,299.672z"/> <path d="M110.935,188.738c-0.918,0-1.83-0.15-2.7-0.442c-18.328-6.752-32.775-21.198-39.529-39.525 c-1.5-4.468,0.905-9.306,5.373-10.806s9.306,0.905,10.806,5.373c5.089,13.222,15.533,23.674,28.75,28.775 c3.97,1.323,6.394,5.331,5.724,9.461C118.688,185.705,115.12,188.74,110.935,188.738z"/> <path d="M80.698,243.38c-0.162,0-0.321-0.009-0.483-0.017c-19.457-1.695-37.195-11.83-48.533-27.733 c-2.582-3.914-1.522-9.179,2.374-11.789s9.168-1.588,11.805,2.289l0,0c8.388,11.416,21.212,18.754,35.304,20.2 c4.609,0.259,8.175,4.137,8.049,8.752C89.087,239.696,85.314,243.373,80.698,243.38L80.698,243.38z"/> <path d="M68.148,310.005c-18.676-0.585-36.262-8.936-48.517-23.042c-3.031-3.584-2.599-8.942,0.967-11.994s8.926-2.652,12,0.895 c9.21,10.549,22.429,16.742,36.429,17.067c4.691-0.04,8.558,3.67,8.713,8.358c0.095,4.711-3.643,8.608-8.354,8.708 C68.973,310.005,68.56,310.005,68.148,310.005z"/> </g> </g></symbol><symbol id="gold-shrimp-2" viewBox="0 0 481.892 481.892"><title>gold-shrimp-2</title><path style="fill:#ED6262;" d="M83.908,196.115C-2.5,144.298-29.877,71.051,98.184,40.723 c71.665-18.522,185.254-19.908,223.368-20.676c-31.955,1.717-149.519,6.731-221.425,27.949 C5.512,73.747-3.448,117.448,75.866,173.18c9.924,6.792,15.721,9.999,15.721,9.999L83.908,196.115z"/><path style="fill:#FFBD49;" d="M115.049,311.676c0,0-138.767,57.961,88.696,63.232l12.303-43.038 C216.049,331.885,110.667,212.439,115.049,311.676z"/><path style="fill:#FFCB5A;" d="M193.22,347.908c-15.812,49.845,45.884,71.605,74.315,93.214l1.205-67.96l13.884-25.254 C282.639,347.908,209.032,298.063,193.22,347.908z"/><path style="fill:#FFBD49;" d="M343.401,402.436l-6.912-47.435c0,0-64.226-33.656-89.69,27.829s63.232,72.011,63.232,72.011 s42.315,14.938,69.03-11.415L343.401,402.436z"/><path style="fill:#FFCB5A;" d="M374.136,325.199c0,0-76.408,40.056-56.215,100.653s80.896,26.353,80.896,26.353 s56.696-30.253,68.412-93.094c11.716-62.84-76.348-7.032-76.348-7.032L374.136,325.199z"/><path style="fill:#FFBD49;" d="M364.484,310.803c0,0-9.653,79.044,51.817,92.22c0,0,68.503,5.271,64.994-57.088 c0,0,6.159-57.977-21.082-101.873C432.971,200.166,364.484,310.803,364.484,310.803z"/><path style="fill:#FFCB5A;" d="M395.219,176.087c0,0,72.9,33.717,72.011,82.025c0,0-17.559,96.602-103.635,57.961 c0,0-72.584-38.641-72.734-72.011c-0.151-33.37,88.185-47.134,88.185-47.134L395.219,176.087z"/><path style="fill:#FFBD49;" d="M285.44,127.823c0,0,88.712,1.37,109.779,48.264c0,0,25.464,74.12-58.85,89.931 c0,0-77.402-0.015-132.623-18.447l25.464-71.484L285.44,127.823z"/><path style="fill:#FFCB5A;" d="M0,165.019c0,0,160.723-105.984,285.44-37.18c0,0,36.894,117.986-81.679,119.748 C203.761,247.571,42.15,196.627,0,165.019z"/><circle style="fill:#454545;" cx="95.819" cy="158.257" r="17.83"/><g style="opacity:0.05;"> <path style="fill:#231F20;" d="M467.2,257.239c-0.015-47.827-71.951-81.152-71.951-81.152 c-21.082-46.893-109.779-48.264-109.779-48.264c-24.215-13.357-49.784-20.073-75.279-22.302c2.605,5.993,2.62,13.116-0.828,19.14 l-25.856,45.101c-4.939,9.261-2.605,21.278,6.204,27.091c9.879,6.189,22.558,2.921,28.235-6.987l22.227-38.31 c5.677-9.909,18.357-13.192,28.235-6.987c8.975,5.933,11.339,18.357,5.888,27.874l-23.838,41.592 c-5.15,9.427-1.732,21.399,7.59,26.744c9.713,5.572,21.986,2.063,27.452-7.439l28.416-49.559 c4.548-7.936,14.833-10.722,22.965-6.069c10.797,6.204,12.198,15.48,8.011,22.769l-27.799,48.489 c-5.451,9.517-3.283,21.82,5.692,27.753c9.879,6.189,22.754,3.042,28.431-6.882l20.721-36.156 c4.548-7.936,14.833-10.722,22.769-6.174c10.632,6.099,12.469,16.851,7.906,24.802l-15.947,27.829 c-5.346,9.321-3.102,21.941,5.993,27.678c9.577,6.28,22.648,3.238,28.326-6.686l18.342-31.985 c4.774-8.328,15.345-10.692,23.567-5.722c0.196,0.12,0.196,0.12,0.196,0.12c0.196,0.105,0.196,0.105,0.392,0.226 c8.433,4.578,11.746,14.893,6.972,23.221l-20.269,35.358c-5.451,9.517-3.087,21.926,5.888,27.874 c8.418,5.271,18.823,3.629,25.254-3.087C480.663,332.051,485.512,297.145,467.2,257.239z"/> <path style="fill:#231F20;" d="M148.104,151.104l26.353-45.96c-17.318,1.084-34.259,3.885-50.372,7.695l-9.743,16.971 c-5.451,9.517-3.298,21.82,5.677,27.753C129.747,163.663,142.276,160.621,148.104,151.104z"/> </g></symbol><symbol id="mushroom" viewBox="0 0 423.923 423.923"><title>mushroom</title><g> <circle style="fill:#F7B76C;" cx="122.681" cy="157.92" r="44.8"/> <circle style="fill:#F7B76C;" cx="122.681" cy="157.92" r="36.8"/> </g><g> <circle style="fill:#ECA44D;" cx="228.681" cy="86.88" r="32.56"/> <circle style="fill:#ECA44D;" cx="228.681" cy="86.88" r="24.56"/> </g><path style="fill:#F7B76C;" d="M211.961,416c-36.477-0.044-66.036-29.603-66.08-66.08c2.268-31.836,8.337-63.286,18.08-93.68 l1.6-5.28h5.52c10.96-0.72,25.52-1.52,40.88-1.52s29.84,0.8,40.88,1.52h5.52l1.6,5.28c9.743,30.394,15.812,61.844,18.08,93.68 C277.997,386.397,248.438,415.956,211.961,416L211.961,416z"/><path style="fill:#D4A77F;" d="M315.961,254.24c-13.52,0-28.56-1.12-44.48-2.32c-18.32-1.36-38.72-2.88-59.52-2.88 s-41.28,1.52-59.28,2.88c-16,1.2-31.2,2.32-44.72,2.32c-25.12,0-41.36-4.08-52.48-13.12c-13.28-10.72-19.52-29.12-19.52-56.96 c0-97.202,78.798-176,176-176s176,78.798,176,176C387.961,242.56,360.521,254.24,315.961,254.24z M305.961,136.24 c-24.742,0-44.8,20.058-44.8,44.8s20.058,44.8,44.8,44.8c24.742,0,44.8-20.058,44.8-44.8l0,0 C350.717,156.316,330.685,136.284,305.961,136.24z M122.681,113.12c-24.742,0-44.8,20.058-44.8,44.8s20.058,44.8,44.8,44.8 s44.8-20.058,44.8-44.8C167.437,133.196,147.405,113.164,122.681,113.12z M228.681,54.4c-17.982,0-32.56,14.578-32.56,32.56 s14.578,32.56,32.56,32.56s32.56-14.578,32.56-32.56l0,0C261.241,68.978,246.664,54.4,228.681,54.4z"/><g> <circle style="fill:#ECA44D;" cx="306.041" cy="181.04" r="44.8"/> <circle style="fill:#ECA44D;" cx="306.041" cy="181.04" r="36.8"/> <path style="fill:#ECA44D;" d="M278.041,349.92c-2.268-31.836-8.337-63.286-18.08-93.68l-1.6-5.28h-5.52 c-10.96-0.72-25.52-1.52-40.88-1.52V416C248.438,415.956,277.997,386.397,278.041,349.92L278.041,349.92z"/> </g><path style="fill:#C78E5B;" d="M228.681,54.4c17.96,0.891,31.798,16.173,30.907,34.133c-0.829,16.714-14.193,30.077-30.907,30.907 c-5.91-0.025-11.697-1.687-16.72-4.8v134.4c20.8,0,41.28,1.52,59.52,2.88c16,1.2,30.96,2.32,44.48,2.32c44.56,0,72-11.76,72-70.08 c0-97.202-78.798-176-176-176v51.12C216.976,56.139,222.764,54.449,228.681,54.4L228.681,54.4z M306.041,136.24 c24.742,0,44.8,20.058,44.8,44.8s-20.058,44.8-44.8,44.8c-24.742,0-44.8-20.058-44.8-44.8l0,0 c0.044-24.693,20.027-44.712,44.72-44.8H306.041z"/><g> <path style="fill:#4C160F;" d="M211.961,0c-101.62,0-184,82.38-184,184c0,30.16,7.44,50.8,22.64,63.12 c12.72,10.32,30.48,14.96,57.52,14.96c13.84,0,29.04-1.12,45.2-2.32h1.44c-9.048,29.273-14.633,59.506-16.64,90.08 c-0.002,40.913,33.164,74.081,74.077,74.083c40.913,0.002,74.081-33.164,74.083-74.077c0-0.002,0-0.004,0-0.006 c-2.13-30.506-7.822-60.657-16.96-89.84h1.44c16,1.2,31.36,2.32,45.2,2.32c41.68,0,80-9.44,80-78.08 C396.094,82.62,313.822,0.133,212.202,0C212.121,0,212.041,0,211.961,0L211.961,0z M270.041,349.92 c0.002,32.077-26,58.081-58.077,58.083c-32.077,0.002-58.081-26-58.083-58.077c0-0.002,0-0.004,0-0.006 c2.381-31.037,8.451-61.679,18.08-91.28c13.04-0.88,26.4-1.52,40-1.52c13.6,0,27.28,0.72,40,1.52 C261.591,288.241,267.66,318.883,270.041,349.92L270.041,349.92z M315.961,245.92c-13.2,0-28.16-1.12-44-2.32 c-18.24-1.36-38.88-2.88-60-2.88s-41.76,1.52-60,2.88c-16,1.2-30.72,2.32-44,2.32c-23.2,0-37.84-3.52-47.44-11.36 c-11.28-8.8-16.56-25.36-16.56-50.4c0-92.784,75.216-168,168-168s168,75.216,168,168c0,51.84-22.4,62.08-64,62.08V245.92z"/> <path style="fill:#4C160F;" d="M122.681,105.12c-29.161,0-52.8,23.639-52.8,52.8s23.639,52.8,52.8,52.8s52.8-23.639,52.8-52.8 C175.437,128.778,151.824,105.164,122.681,105.12z M122.681,194.72c-20.324,0-36.8-16.476-36.8-36.8 c0-20.324,16.476-36.8,36.8-36.8c20.324,0,36.8,16.476,36.8,36.8C159.437,178.226,142.987,194.676,122.681,194.72z"/> <path style="fill:#4C160F;" d="M253.161,181.04c0,29.161,23.639,52.8,52.8,52.8c29.161,0,52.8-23.639,52.8-52.8 s-23.639-52.8-52.8-52.8l0,0C276.819,128.284,253.205,151.898,253.161,181.04z M342.761,181.04c0,20.324-16.476,36.8-36.8,36.8 c-20.324,0-36.8-16.476-36.8-36.8s16.476-36.8,36.8-36.8l0,0c20.337,0,36.836,16.463,36.88,36.8H342.761z"/> <path style="fill:#4C160F;" d="M269.161,86.88c0-22.401-18.159-40.56-40.56-40.56s-40.56,18.159-40.56,40.56 c0,22.401,18.159,40.56,40.56,40.56l0,0C251.002,127.44,269.161,109.281,269.161,86.88z M228.601,111.44 c-13.564,0-24.56-10.996-24.56-24.56s10.996-24.56,24.56-24.56c13.564,0,24.56,10.996,24.56,24.56l0,0 c0,13.533-10.947,24.516-24.48,24.56H228.601z"/> </g></symbol><symbol id="pharmacy" viewBox="0 0 513 513"><title>pharmacy</title><linearGradient id="SVGID_1_" gradientUnits="userSpaceOnUse" x1="256.5" x2="256.5" y1="512.5" y2=".5"><stop offset="0" stop-color="#00b59c"/><stop offset="1" stop-color="#9cffac"/></linearGradient><g><g><path d="m227 360.5h15v15c0 8.284 6.716 15 15 15s15-6.716 15-15v-15h15c8.284 0 15-6.716 15-15s-6.716-15-15-15h-15v-15c0-8.284-6.716-15-15-15s-15 6.716-15 15v15h-15c-8.284 0-15 6.716-15 15s6.716 15 15 15zm271-150h-111.154l107.577-107.577c11.333-11.332 17.578-26.389 17.587-42.396.009-16.025-6.237-31.101-17.587-42.45-23.373-23.372-61.43-23.376-84.846 0l-192.423 192.423h-202.154c-8.284 0-15 6.716-15 15 0 51.764 15.447 101.592 44.67 144.097 26.576 38.653 62.845 68.979 105.33 88.183v39.72c0 8.284 6.716 15 15 15h183c8.284 0 15-6.716 15-15v-39.72c42.485-19.204 78.754-49.53 105.33-88.183 29.223-42.505 44.67-92.333 44.67-144.097 0-8.284-6.716-15-15-15zm-67.219-171.201c11.71-11.69 30.742-11.694 42.429-.009 5.679 5.679 8.805 13.215 8.8 21.22-.004 8-3.13 15.529-8.8 21.199l-128.79 128.791h-84.84zm-88.414 394.689c-5.662 2.294-9.367 7.793-9.367 13.902v34.61h-153v-34.609c0-6.109-3.705-11.608-9.367-13.902-80.76-32.72-134.505-107.642-140.142-193.489h452.018c-5.637 85.847-59.382 160.769-140.142 193.488zm-243.782-313.69 4.595 4.595c10.846 10.846 16.82 25.267 16.82 40.607 0 8.284 6.716 15 15 15s15-6.716 15-15c0-15.339 5.974-29.76 16.821-40.607l4.594-4.595c54.921-3.327 98.585-49.056 98.585-104.798 0-8.284-6.716-15-15-15-55.743 0-101.471 43.664-104.798 98.585l-4.594 4.595c-3.978 3.978-7.514 8.278-10.607 12.83-3.094-4.553-6.629-8.853-10.607-12.83l-4.595-4.595c-3.328-54.921-49.056-98.585-104.799-98.585-8.284 0-15 6.716-15 15 0 55.743 43.664 101.471 98.585 104.798zm139.489-87.872c-6.435 27.791-28.357 49.714-56.148 56.148 6.434-27.791 28.357-49.714 56.148-56.148zm-150 56.148c-27.791-6.434-49.714-28.357-56.148-56.148 27.791 6.434 49.714 28.357 56.148 56.148z" fill="url(#SVGID_1_)"/></g></g></symbol><symbol id="gamepad" viewBox="0 0 249.356 249.356"><title>gamepad</title><path d="M163.536,29.867l-78.25,45.646v-9.461c13.358-3.349,23.253-15.432,23.253-29.827c0-16.983-13.77-30.753-30.753-30.753 s-30.753,13.77-30.753,30.753c0,14.396,9.895,26.478,23.253,29.827v18.211L0,125.297l0.023,68.625l85.941,49.963l163.392-95.693 V80.126L163.536,29.867z M77.786,134.391c4.143,0,7.5-3.357,7.5-7.5v-2.544c6.479,1.49,9.838,4.598,9.838,5.886 c0,1.725-6.012,6.712-17.484,6.712c-11.472,0-17.483-4.987-17.483-6.712c0-1.308,3.462-4.484,10.13-5.948v2.606 C70.286,131.034,73.644,134.391,77.786,134.391z M217.883,136.083l-25.251,14.7c-3.598,2.037-8.178,0.776-10.221-2.834 c-2.04-3.605-0.771-8.181,2.834-10.221l25.251-14.7c3.604-2.04,8.181-0.771,10.221,2.834 C222.757,129.467,221.488,134.043,217.883,136.083z M85.813,167.347l-63.506-37.731l47.979-27.988v7.414 c-14.738,2.111-25.13,10.517-25.13,21.192c0,12.378,13.965,21.712,32.483,21.712c18.52,0,32.484-9.334,32.484-21.712 c0-10.604-10.255-18.969-24.838-21.149V92.878l78.225-45.631l14.547,8.543c-15.407,0.303-26.918,8.384-26.918,19.041 c0,1.34,0.184,2.638,0.532,3.886c-3.562-1.091-7.564-1.695-11.855-1.695c-15.857,0-27.815,8.191-27.815,19.055 s11.958,19.055,27.815,19.055c15.856,0,27.814-8.191,27.814-19.055c0-1.34-0.184-2.638-0.532-3.886 c3.561,1.091,7.563,1.695,11.854,1.695c15.857,0,27.814-8.191,27.814-19.055c0-0.779-0.068-1.543-0.188-2.293l20.457,12.014 L85.813,167.347z"/></symbol><symbol id="sound-on" viewBox="0 0 52.026 52.026"><title>sound-on</title><path d="M28.404,3.413c-0.976-0.552-2.131-0.534-3.09,0.044c-0.046,0.027-0.09,0.059-0.13,0.093L11.634,15.013H1 c-0.553,0-1,0.447-1,1v19c0,0.266,0.105,0.52,0.293,0.707S0.734,36.013,1,36.013l10.61-0.005l13.543,12.44 c0.05,0.046,0.104,0.086,0.161,0.12c0.492,0.297,1.037,0.446,1.582,0.446c0.517-0.001,1.033-0.134,1.508-0.402 C29.403,48.048,30,47.018,30,45.857V6.169C30,5.008,29.403,3.978,28.404,3.413z M28,45.857c0,0.431-0.217,0.81-0.579,1.015 c-0.155,0.087-0.548,0.255-1,0.026L13,34.569v-4.556c0-0.553-0.447-1-1-1s-1,0.447-1,1v3.996l-9,0.004v-17h9v4c0,0.553,0.447,1,1,1 s1-0.447,1-1v-4.536l13.405-11.34c0.461-0.242,0.86-0.07,1.016,0.018C27.783,5.36,28,5.739,28,6.169V45.857z"/><path d="M38.797,7.066c-0.523-0.177-1.091,0.103-1.269,0.626c-0.177,0.522,0.103,1.091,0.626,1.269 c7.101,2.411,11.872,9.063,11.872,16.553c0,7.483-4.762,14.136-11.849,16.554c-0.522,0.178-0.802,0.746-0.623,1.27 c0.142,0.415,0.53,0.677,0.946,0.677c0.107,0,0.216-0.017,0.323-0.054c7.896-2.693,13.202-10.106,13.202-18.446 C52.026,17.166,46.71,9.753,38.797,7.066z"/><path d="M43.026,25.513c0-5.972-4.009-11.302-9.749-12.962c-0.533-0.151-1.084,0.152-1.238,0.684 c-0.153,0.53,0.152,1.085,0.684,1.238c4.889,1.413,8.304,5.953,8.304,11.04s-3.415,9.627-8.304,11.04 c-0.531,0.153-0.837,0.708-0.684,1.238c0.127,0.438,0.526,0.723,0.961,0.723c0.092,0,0.185-0.013,0.277-0.039 C39.018,36.815,43.026,31.485,43.026,25.513z"/></symbol><symbol id="restart" viewBox="0 0 14.155 14.155"><title>restart</title><path style="fill:#030104;" d="M12.083,1.887c-0.795-0.794-1.73-1.359-2.727-1.697v2.135c0.48,0.239,0.935,0.55,1.334,0.95 c1.993,1.994,1.993,5.236,0,7.229c-1.993,1.99-5.233,1.99-7.229,0c-1.991-1.995-1.991-5.235,0-7.229 C3.466,3.269,3.482,3.259,3.489,3.25h0.002l1.181,1.179L4.665,0.685L0.923,0.68l1.176,1.176C2.092,1.868,2.081,1.88,2.072,1.887 c-2.763,2.762-2.763,7.243,0,10.005c2.767,2.765,7.245,2.765,10.011,0C14.844,9.13,14.847,4.649,12.083,1.887z"/></symbol></svg>